<svg t="1591088442361" class="icon" viewBox="0 0 1024 1024" version="1.1" xmlns="http://www.w3.org/2000/svg" p-id="2848" width="200" height="200"><path d="M466.56 429.44c11.52 11.52 27.52 18.56 45.44 18.56s33.92-7.04 45.44-18.56l256-256a64.192 64.192 0 0 0-90.88-90.88L512 293.76l-210.56-211.2a64.192 64.192 0 0 0-90.88 90.88l256 256z m90.88 165.12C545.92 583.04 529.92 576 512 576s-33.92 7.04-45.44 18.56l-256 256a64.192 64.192 0 0 0 90.88 90.88L512 730.24l210.56 210.56c11.52 12.16 27.52 19.2 45.44 19.2a64.192 64.192 0 0 0 45.44-109.44l-256-256z" p-id="2849" fill="#515151"></path></svg>