<svg t="1591089095762" class="icon" viewBox="0 0 1024 1024" version="1.1" xmlns="http://www.w3.org/2000/svg" p-id="4296" width="200" height="200"><path d="M256 448c17.92 0 33.92-7.04 45.44-18.56L512 218.24l210.56 210.56c11.52 12.16 27.52 19.2 45.44 19.2a64.192 64.192 0 0 0 45.44-109.44l-256-256C545.92 71.04 529.92 64 512 64s-33.92 7.04-45.44 18.56l-256 256A64.192 64.192 0 0 0 256 448z m512 128c-17.92 0-33.92 7.04-45.44 18.56L512 805.76l-210.56-211.2a64.192 64.192 0 0 0-90.88 90.88l256 256c11.52 11.52 27.52 18.56 45.44 18.56s33.92-7.04 45.44-18.56l256-256A64.192 64.192 0 0 0 768 576z" p-id="4297" fill="#515151"></path></svg>