<svg t="1591251714508"  class="icon" viewBox="0 0 1024 1024" version="1.1" xmlns="http://www.w3.org/2000/svg" p-id="1179" width="16" height="16"><path d="M832 1024H192c-105.984 0-192-85.952-192-192V192c0-106.048 86.016-192 192-192h290.496A254.677333 254.677333 0 0 0 448 128H192a64 64 0 0 0-64 64v640c0 35.392 28.608 64 64 64h640c35.392 0 64-28.608 64-64v-144l128-96V832a192 192 0 0 1-192 192z m-89.6-460.8a64.106667 64.106667 0 0 1-67.008 6.08A64.064 64.064 0 0 1 640 512v-64c-202.944 0-374.144 134.976-429.184 320A445.482667 445.482667 0 0 1 192 640C192 392.576 392.576 192 640 192V128c0-24.256 13.696-46.4 35.392-57.28A64.106667 64.106667 0 0 1 742.4 76.8l256 192a63.957333 63.957333 0 0 1 0 102.4l-256 192z" fill="#3F51B5" p-id="1180"></path></svg>