<svg data-v-fde0c5aa="" xmlns="http://www.w3.org/2000/svg" viewBox="0 0 300 300" class="icon"><!----><defs data-v-fde0c5aa=""><!----></defs><rect data-v-fde0c5aa="" fill="transparent" x="0" y="0" width="300px" height="300px" class="logo-background-square"></rect><!----><defs data-v-fde0c5aa=""><!----></defs><g data-v-fde0c5aa="" id="aa7e6a88-73a6-4927-ae7e-5e8b928836ac" fill="#0D7CE9" stroke="none" transform="matrix(3.432136958687963,0,0,3.432136958687963,36.91109441214152,36.8097594028708)"><path d="M64 32.8h-5.2V15.5c0-.6-.4-1-1-1h-10c-.5 0-1 .4-1 1v17.3h-4.5c-.5 0-1 .4-1 1v3.9c0 .5-.1 1-.3 1.4h24v-5.3c0-.5-.5-1-1-1zm-10.7-2.1h-1c-.6 0-1-.4-1-1s.4-1 1-1h1c.6 0 1 .4 1 1 0 .5-.4 1-1 1zm0-5h-1c-.6 0-1-.4-1-1s.4-1 1-1h1c.6 0 1 .4 1 1 0 .5-.4 1-1 1zm0-5h-1c-.6 0-1-.4-1-1s.4-1 1-1h1c.6 0 1 .4 1 1 0 .5-.4 1-1 1z"></path><path d="M29 36.3h5.6c1.1 0 2-.9 2-2v-7.7c0-.5-.5-1-1-1H29l-.5.2C27.3 23.6 17.9 4.9 16.1 1.5c-.3-.5-.9-.7-1.3-.4L9.5 3.8c-.3.2-.6.4-.6.9v19.4H7.4c-.5 0-1 .5-1 1v4.2c0 1.1.9 2 2 2h3c1.1 0 2-.9 2-2v-4.2c0-.5-.4-1-1-1h-1.5V8.9c.1.3 9 17.9 9.9 19.5l-.8.3c-.4.1-.7.5-.7 1v4.7c0 1.1.9 2 2 2H27v4.8H2c-.5 0-1 .4-1 1v3.6c0 .9.4 1.8 1.1 2.3 3.5 2.8 4.2 3.1 4.2 3.8v2.9c0 1.6 1.3 3 3 3h48.1c1.6 0 3-1.3 3-2.9.2-1.7-.4-3.1.5-3.6l2.5-1.3c1-.5 1.6-1.5 1.6-2.6v-6.1H29v-5zm-14.2-33l1.4 2.8-3.9-1.6 2.5-1.2zm1 10.8L12 6.6l5.2 2.1-1.4 5.4zm2.8-3.2l3.8 7.4-5.2-2.1 1.4-5.3zm3.3 15.3l-3.8-7.4 5.2 2.1-1.4 5.3zm4.4.4l-2.7.9 1.1-4.4 1.8 3.5h-.2zm24.3 22.8h2c.6 0 1 .4 1 1s-.4 1-1 1h-2c-.6 0-1-.4-1-1 0-.5.4-1 1-1zm-8 0h2c.6 0 1 .4 1 1s-.4 1-1 1h-2c-.6 0-1-.4-1-1 0-.5.4-1 1-1zm-8 0h2c.6 0 1 .4 1 1s-.4 1-1 1h-2c-.6 0-1-.4-1-1 0-.5.4-1 1-1zM64 63c-3.9 0-4-4-8.9-4s-5 4-8.9 4c-3.8 0-4-4-8.9-4-4.8 0-5 4-8.9 4-3.9 0-4-4-8.8-4-4.8 0-5.1 4-8.9 4-3.8 0-4.1-4-8.8-4-.5 0-1 .4-1 1 0 .5.4 1 1 1 3.8 0 4.1 4 8.8 4 4.8 0 5-4 8.9-4 3.8 0 4 4 8.8 4 4.8 0 5-4 8.9-4 3.9 0 4 4 8.9 4 4.8 0 5.1-4 8.9-4 3.9 0 4 4 8.9 4 1.3 0 1.3-2 0-2z"></path></g><!----></svg>